
<svg xmlns="http://www.w3.org/2000/svg" width="21" height="18.14" viewBox="0 0 16.561 14.309"><path d="M9.284,6.012a3.767,3.767,0,0,1,3.765,3.765,3.655,3.655,0,0,1-.271,1.378l2.2,2.2A8.9,8.9,0,0,0,17.56,9.778,8.906,8.906,0,0,0,9.276,4.13a8.77,8.77,0,0,0-3,.527L7.906,6.283A3.655,3.655,0,0,1,9.284,6.012ZM1.753,3.956,3.47,5.673l.346.346A8.889,8.889,0,0,0,1,9.778a8.9,8.9,0,0,0,11.582,5.015l.316.316,2.206,2.2.956-.956L2.709,3ZM5.918,8.121,7.085,9.288a2.125,2.125,0,0,0-.06.489,2.256,2.256,0,0,0,2.259,2.259,2.125,2.125,0,0,0,.489-.06l1.167,1.167A3.741,3.741,0,0,1,5.918,8.121Zm3.246-.587,2.372,2.372.015-.12A2.256,2.256,0,0,0,9.291,7.526Z" transform="translate(-1 -3)" fill="#fff"/></svg>